#N canvas 1017 352 371 562 10;
#X obj -197 -73 tgl 25 0 empty empty DSP 3 12 1 9 -24198 -1 -1 1 1
;
#X msg -195 -42 \; pd dsp \$1;
#X floatatom -198 284 6 0 0 0 - - -, f 6;
#X floatatom -182 259 6 0 0 0 - - -, f 6;
#X text -141 252 dB;
#X text -157 282 dB;
#X text -164 40 dB;
#X text -155 60 dB;
#X text -132 58 peak-level;
#X text -134 37 rms-level;
#X text -120 251 peak-level;
#X text -137 281 rms-level;
#X floatatom -224 40 7 -110 20 0 - - -, f 7;
#X floatatom -213 61 7 -110 20 0 - - -, f 7;
#N canvas 236 62 699 530 edit 0;
#X obj 37 222 f;
#X msg 15 201 bang;
#X floatatom 53 200 3 50 88 0 - - -, f 3;
#X floatatom 88 222 3 0 37 0 - - -, f 3;
#X obj 37 245 pack 0 0;
#X text 115 222 y-label;
#X text 81 200 x-label;
#X obj 292 313 f;
#X msg 270 292 bang;
#X floatatom 308 291 3 -10 10 0 - - -, f 3;
#X floatatom 343 313 3 -10 10 0 - - -, f 3;
#X obj 292 336 pack 0 0;
#X obj 304 435 f;
#X msg 282 414 bang;
#X floatatom 320 413 3 20 140 0 - - -, f 3;
#X floatatom 355 435 3 150 200 0 - - -, f 3;
#X obj 304 458 pack 0 0;
#X text 336 291 x-delta;
#X text 370 313 y-delta;
#X text 348 413 x-position;
#X text 382 435 y-position;
#X obj 57 337 f;
#X msg 35 316 bang;
#X floatatom 73 315 3 0 2 0 - - -, f 3;
#X floatatom 108 337 3 8 36 0 - - -, f 3;
#X obj 57 360 pack 0 0;
#X text 101 315 font;
#X text 137 337 height;
#X floatatom 471 106 1 0 1 0 - - -, f 1;
#X msg 52 131 \; foo7_rcv color \$1 \$2;
#X msg 37 270 \; foo7_rcv label_pos \$1 \$2;
#X msg 57 386 \; foo7_rcv label_font \$1 \$2;
#X msg 37 427 \; foo7_rcv label blabla;
#X msg 292 361 \; foo7_rcv delta \$1 \$2;
#X msg 304 483 \; foo7_rcv pos \$1 \$2;
#X msg 469 23 \; foo7_rcv receive foo7a_rcv;
#X msg 469 60 \; foo7a_rcv receive foo7_rcv;
#X text 492 106 display scale;
#X msg 471 132 \; foo7_rcv scale \$1;
#X obj 279 193 f;
#X msg 257 172 bang;
#X floatatom 295 171 3 8 50 0 - - -, f 3;
#X floatatom 330 193 3 110 200 0 - - -, f 3;
#X obj 279 216 pack 0 0;
#X text 323 171 width;
#X text 357 193 height;
#X msg 279 241 \; foo7_rcv size \$1 \$2;
#X msg 37 463 \; foo7_rcv label vu-meter;
#X obj 52 79 f;
#X msg 29 31 bang;
#X floatatom 68 29 3 0 29 0 - - -, f 3;
#X floatatom 103 47 3 0 29 0 - - -, f 3;
#X text 96 29 background;
#X text 131 48 label-color;
#X msg 290 25 back;
#X msg 290 49 label;
#X msg 252 25 bang;
#N canvas 15 207 606 448 RGB_____________ 0;
#X obj 97 56 inlet;
#X obj 262 53 inlet;
#X obj 339 55 inlet;
#X obj 405 56 inlet;
#X obj 97 270 bang;
#X msg 77 295 0;
#X msg 104 295 1;
#X obj 146 268 bang;
#X msg 132 295 0;
#X msg 160 295 1;
#X obj 265 313 spigot;
#X obj 312 313 spigot;
#X obj 249 385 outlet;
#X text 93 33 select;
#X text 267 28 red;
#X text 337 30 green;
#X text 409 30 blue;
#X obj 405 102 t b f;
#X obj 339 160 +;
#X obj 339 185 t b f;
#X obj 339 216 +;
#X obj 296 385 outlet;
#X obj 28 180 loadbang;
#X obj 296 361 f;
#X obj 249 361 f;
#X obj 262 79 * -65536;
#X obj 339 80 * -256;
#X obj 405 80 * -1;
#X obj 339 247 - 1;
#X obj 97 135 route back label bang;
#X obj 235 168 t b b b;
#X connect 0 0 29 0;
#X connect 1 0 25 0;
#X connect 2 0 26 0;
#X connect 3 0 27 0;
#X connect 4 0 5 0;
#X connect 4 0 6 0;
#X connect 5 0 11 1;
#X connect 6 0 10 1;
#X connect 7 0 8 0;
#X connect 7 0 9 0;
#X connect 8 0 10 1;
#X connect 9 0 11 1;
#X connect 10 0 24 1;
#X connect 11 0 23 1;
#X connect 17 0 18 0;
#X connect 17 1 18 1;
#X connect 18 0 19 0;
#X connect 19 0 20 0;
#X connect 19 1 20 1;
#X connect 20 0 28 0;
#X connect 22 0 6 0;
#X connect 23 0 21 0;
#X connect 24 0 12 0;
#X connect 25 0 20 0;
#X connect 26 0 18 0;
#X connect 27 0 17 0;
#X connect 28 0 11 0;
#X connect 28 0 10 0;
#X connect 29 0 4 0;
#X connect 29 1 7 0;
#X connect 29 2 30 0;
#X connect 30 0 24 0;
#X connect 30 1 23 0;
#X connect 30 2 28 0;
#X restore 290 86 pd RGB_____________;
#X floatatom 332 55 3 0 255 0 - - -, f 3;
#X floatatom 375 55 3 0 255 0 - - -, f 3;
#X floatatom 418 56 3 0 255 0 - - -, f 3;
#X text 39 3 preset-colors;
#X text 301 0 RGB-colors;
#X text 332 37 red;
#X text 368 36 green;
#X text 416 36 blue;
#X obj 52 104 pack 0 0;
#X connect 0 0 4 0;
#X connect 1 0 0 0;
#X connect 2 0 0 1;
#X connect 3 0 4 1;
#X connect 4 0 30 0;
#X connect 7 0 11 0;
#X connect 8 0 7 0;
#X connect 9 0 7 1;
#X connect 10 0 11 1;
#X connect 11 0 33 0;
#X connect 12 0 16 0;
#X connect 13 0 12 0;
#X connect 14 0 12 1;
#X connect 15 0 16 1;
#X connect 16 0 34 0;
#X connect 21 0 25 0;
#X connect 22 0 21 0;
#X connect 23 0 21 1;
#X connect 24 0 25 1;
#X connect 25 0 31 0;
#X connect 28 0 38 0;
#X connect 39 0 43 0;
#X connect 40 0 39 0;
#X connect 41 0 39 1;
#X connect 42 0 43 1;
#X connect 43 0 46 0;
#X connect 48 0 66 0;
#X connect 49 0 48 0;
#X connect 50 0 48 1;
#X connect 51 0 66 1;
#X connect 54 0 57 0;
#X connect 55 0 57 0;
#X connect 56 0 57 0;
#X connect 57 0 66 0;
#X connect 57 1 66 1;
#X connect 58 0 57 1;
#X connect 59 0 57 2;
#X connect 60 0 57 3;
#X connect 66 0 29 0;
#X restore -158 146 pd edit;
#N canvas 147 336 290 235 source 0;
#X obj 40 95 random 102;
#X obj 40 171 - 101;
#X obj 40 205 pack 0 0;
#X obj 40 45 metro 300;
#X obj 40 69 t b b;
#X obj 133 95 random 20;
#X obj 40 117 t f f;
#X obj 91 147 +;
#X obj 91 172 - 101;
#X obj 40 21 inlet;
#X obj 40 230 outlet;
#X connect 0 0 6 0;
#X connect 1 0 2 0;
#X connect 2 0 10 0;
#X connect 3 0 4 0;
#X connect 4 0 0 0;
#X connect 4 1 5 0;
#X connect 5 0 7 1;
#X connect 6 0 1 0;
#X connect 6 1 7 0;
#X connect 7 0 8 0;
#X connect 8 0 2 1;
#X connect 9 0 3 0;
#X restore -232 -5 pd source;
#X obj -172 18 s fff;
#X obj -231 99 vu 15 120 empty empty -1 -8 0 10 -66577 -1 1 0;
#X obj -284 99 vu 15 120 empty empty -1 -8 0 10 -66577 -1 1 0;
#X floatatom -274 288 6 0 0 0 - - -, f 6;
#X floatatom -266 258 6 0 0 0 - - -, f 6;
#N canvas 235 23 1412 1008 META 1;
#N canvas 0 22 796 453 (subpatch) 0;
#X array array1 100 float 3 black black;
#A 0 -2.26498e-06 -1.0848e-05 1.19209e-07 1.19209e-07 -4.52995e-06
-1.19209e-07 5.96046e-06 1.19209e-06 -2.26498e-06 -1.34706e-05 -2.86102e-06
-7.51019e-06 -1.09673e-05 1.54972e-06 -1.41859e-05 -3.57628e-06 -1.16825e-05
-3.33786e-06 -2.38419e-06 -5.96046e-06 -6.4373e-06 -4.76837e-07 -1.22786e-05
-1.90735e-06 -4.29153e-06 2.98023e-06 5.96046e-07 -6.07967e-06 -1.07288e-06
-9.77516e-06 -7.98702e-06 -7.7486e-06 -5.48363e-06 -5.00679e-06 -1.3113e-06
-3.93391e-06 -4.76837e-06 -3.69549e-06 -5.72205e-06 -4.41074e-06 -7.7486e-06
-1.3113e-06 -1.16825e-05 -1.43051e-06 -5.126e-06 -4.29153e-06 4.64916e-06
-4.05312e-06 -2.5034e-06 -1.34706e-05 -1.07288e-06 -9.17912e-06 -4.41074e-06
-8.9407e-06 -7.98702e-06 -1.00136e-05 -4.41074e-06 -1.19209e-05 -7.15256e-06
-5.60284e-06 -1.43051e-06 2.14577e-06 -6.67572e-06 -1.13249e-05 -1.18017e-05
0 -8.82149e-06 -6.31809e-06 -1.16825e-05 -1.57356e-05 -4.41074e-06
-5.126e-06 -1.09673e-05 -6.19888e-06 -6.07967e-06 -1.43051e-05 -3.57628e-07
-3.21865e-06 5.96046e-07 -1.54972e-06 0 -3.69549e-06 -1.3113e-06 2.38419e-06
-3.8147e-06 -1.66893e-06 4.05312e-06 -4.29153e-06 7.86781e-06 9.53674e-07
2.98023e-06 4.41074e-06 -3.69549e-06 -1.12057e-05 5.00679e-06 3.33786e-06
-1.00136e-05 -4.29153e-06 -2.38419e-06 -5.84126e-06;
#X coords 0 1 100 -1 200 140 1;
#X restore 501 -426 graph;
#X obj 468 -157 tabwrite~ array1;
#X obj 468 -199 bng 15 250 50 0 empty empty empty 17 7 0 10 -262144
-1 -1;
#X obj 248 -249 threshold~ 1 3000 0.1 1000;
#X text 534 -179 msec.;
#X text 99 -343 input sensitivity mic;
#X obj 468 -178 metro 160;
#X obj 136 169 freeverb~;
#X msg 143 -298 roomsize \$1;
#X msg 143 -253 damping \$1;
#X msg 145 -201 width \$1;
#X msg 145 -157 wet \$1;
#X msg 145 -113 dry \$1;
#X msg 354 -128 print;
#X msg 248 -166 freeze \$1;
#X msg 259 -108 bypass \$1;
#X obj 259 -127 tgl 15 0 empty empty empty 0 -6 0 8 -262144 -1 -1 0
1;
#X obj 248 -186 tgl 15 0 empty empty empty 0 -6 0 8 -262144 -1 -1 0
1;
#X obj 157 -136 hsl 60 18 0 1 0 1 empty empty dry 2 9 1 12 -225271
-1 -1 5300 0;
#X obj 157 -180 hsl 60 18 0 1 0 1 empty empty wet 2 9 1 12 -225271
-1 -1 1400 0;
#X obj 155 -232 hsl 60 18 0 1 0 1 empty empty width 2 9 1 12 -262131
-1 -1 2600 0;
#X obj 155 -276 hsl 60 18 0 2 0 1 empty empty damping 2 9 1 12 -261689
-1 -1 1600 0;
#X obj 160 -322 hsl 60 18 0.11 1.1 0 1 empty empty roomsize 2 9 1 12
-261689 -1 -1 3600 0;
#X floatatom 125 -317 3 0 0 0 - - -, f 3;
#X floatatom 125 -272 3 0 0 0 - - -, f 3;
#X floatatom 125 -227 3 0 0 0 - - -, f 3;
#X floatatom 127 -176 3 0 0 0 - - -, f 3;
#X floatatom 127 -132 3 0 0 0 - - -, f 3;
#X text 330 -205 msec.;
#X obj 600 -102 fiddle~;
#X obj 600 -50 moses 60;
#X obj 336 -9 bng 15 250 50 0 empty empty empty 17 7 0 10 -262144 -1
-1;
#X obj 409 -8 bng 15 250 50 0 empty empty empty 17 7 0 10 -262144 -1
-1;
#X floatatom 600 -78 5 0 0 0 - - -, f 5;
#X msg 336 56 freeze \$1;
#X obj 336 37 tgl 15 0 empty empty empty 0 -6 0 8 -262144 -1 -1 0 1
;
#X msg 409 57 freeze \$1;
#X obj 409 38 tgl 15 0 empty empty empty 0 -6 0 8 -262144 -1 -1 0 1
;
#X obj 336 15 metro 3500;
#X obj 409 14 metro 3500;
#X obj 248 -226 bng 15 250 50 0 empty empty empty 17 7 0 10 -262144
-1 -1;
#X obj 248 -206 metro 2500;
#X obj 483 -10 bng 15 250 50 0 empty empty empty 17 7 0 10 -262144
-1 -1;
#X obj 556 -9 bng 15 250 50 0 empty empty empty 17 7 0 10 -262144 -1
-1;
#X msg 483 55 freeze \$1;
#X obj 483 36 tgl 15 0 empty empty empty 0 -6 0 8 -262144 -1 -1 0 1
;
#X msg 556 56 freeze \$1;
#X obj 556 37 tgl 15 0 empty empty empty 0 -6 0 8 -262144 -1 -1 1 1
;
#X obj 483 14 metro 1500;
#X obj 400 358 writesf~ 2;
#X msg 667 338 start;
#X msg 522 288 stop;
#X msg 481 288 print;
#X text 511 333 1;
#X text 650 334 2, f 3;
#X obj 556 13 metro 1500;
#X obj 300 83 bng 15 250 50 0 empty empty empty 17 7 0 10 -262144 -1
-1;
#X obj 373 84 bng 15 250 50 0 empty empty empty 17 7 0 10 -262144 -1
-1;
#X msg 300 148 freeze \$1;
#X obj 300 129 tgl 15 0 empty empty empty 0 -6 0 8 -262144 -1 -1 0
1;
#X msg 373 149 freeze \$1;
#X obj 373 130 tgl 15 0 empty empty empty 0 -6 0 8 -262144 -1 -1 1
1;
#X obj 300 107 metro 5000;
#X obj 373 106 metro 5000;
#X obj 475 88 bng 15 250 50 0 empty empty empty 17 7 0 10 -262144 -1
-1;
#X obj 548 89 bng 15 250 50 0 empty empty empty 17 7 0 10 -262144 -1
-1;
#X msg 475 153 freeze \$1;
#X obj 475 134 tgl 15 0 empty empty empty 0 -6 0 8 -262144 -1 -1 0
1;
#X msg 548 154 freeze \$1;
#X obj 548 135 tgl 15 0 empty empty empty 0 -6 0 8 -262144 -1 -1 1
1;
#X obj 475 112 metro 1000;
#X obj 548 111 metro 1000;
#X floatatom 649 -77 5 0 0 0 - - -, f 5;
#X floatatom 697 -77 5 0 0 0 - - -, f 5;
#X floatatom 749 -79 5 0 0 0 - - -, f 5;
#X obj 358 411 delwrite~ delayLeft 4000;
#X obj 356 387 delwrite~ delayRight 4000;
#X obj 348 451 delread~ delayRight 1500;
#X obj 350 475 delread~ delayLeft 1000;
#X text 520 308 CAMBIAR NOMBRE FICHERO CADA NUEVA REC.;
#X obj 717 -9 bng 15 250 50 0 empty empty empty 17 7 0 10 -262144 -1
-1;
#X msg 717 56 freeze \$1;
#X obj 717 37 tgl 15 0 empty empty empty 0 -6 0 8 -262144 -1 -1 1 1
;
#X obj 709 89 bng 15 250 50 0 empty empty empty 17 7 0 10 -262144 -1
-1;
#X msg 709 154 freeze \$1;
#X obj 709 135 tgl 15 0 empty empty empty 0 -6 0 8 -262144 -1 -1 1
1;
#X obj 709 111 metro 1000;
#X obj 647 -7 bng 15 250 50 0 empty empty empty 17 7 0 10 -262144 -1
-1;
#X msg 647 58 freeze \$1;
#X obj 647 39 tgl 15 0 empty empty empty 0 -6 0 8 -262144 -1 -1 0 1
;
#X obj 639 91 bng 15 250 50 0 empty empty empty 17 7 0 10 -262144 -1
-1;
#X msg 639 156 freeze \$1;
#X obj 639 137 tgl 15 0 empty empty empty 0 -6 0 8 -262144 -1 -1 0
1;
#X obj 639 113 metro 1000;
#X obj 647 15 metro 5000;
#X obj 717 13 metro 5000;
#X obj 865 -9 bng 15 250 50 0 empty empty empty 17 7 0 10 -262144 -1
-1;
#X msg 865 56 freeze \$1;
#X obj 865 37 tgl 15 0 empty empty empty 0 -6 0 8 -262144 -1 -1 0 1
;
#X obj 857 89 bng 15 250 50 0 empty empty empty 17 7 0 10 -262144 -1
-1;
#X msg 857 154 freeze \$1;
#X obj 857 135 tgl 15 0 empty empty empty 0 -6 0 8 -262144 -1 -1 1
1;
#X obj 857 111 metro 1000;
#X obj 795 -7 bng 15 250 50 0 empty empty empty 17 7 0 10 -262144 -1
-1;
#X msg 795 58 freeze \$1;
#X obj 795 39 tgl 15 0 empty empty empty 0 -6 0 8 -262144 -1 -1 0 1
;
#X obj 787 91 bng 15 250 50 0 empty empty empty 17 7 0 10 -262144 -1
-1;
#X msg 787 156 freeze \$1;
#X obj 787 137 tgl 15 0 empty empty empty 0 -6 0 8 -262144 -1 -1 0
1;
#X obj 787 113 metro 1000;
#X obj 795 15 metro 6000;
#X obj 865 13 metro 6000;
#X obj 7 212 readsf~ 1;
#X msg -46 163 stop;
#X obj 247 -277 *~ 1;
#X text 398 -81 D♭ Midi number: 38 \, 50 \, 62 \, 74>>;
#X obj 132 418 dac~ 1 2;
#X msg 10 -105 open v1.wav \, 1;
#X obj 257 -385 adc~ 1 2 3 4 5 6 7 8;
#X msg 524 335 open tabernaculo.wav;
#X connect 2 0 6 0;
#X connect 3 0 40 0;
#X connect 6 0 1 0;
#X connect 7 0 49 0;
#X connect 7 0 75 0;
#X connect 7 0 116 0;
#X connect 7 0 116 1;
#X connect 7 1 49 1;
#X connect 7 1 76 0;
#X connect 7 1 116 0;
#X connect 7 1 116 1;
#X connect 8 0 7 0;
#X connect 9 0 7 0;
#X connect 10 0 7 0;
#X connect 11 0 7 0;
#X connect 12 0 7 0;
#X connect 13 0 7 0;
#X connect 14 0 7 0;
#X connect 15 0 7 0;
#X connect 16 0 15 0;
#X connect 17 0 14 0;
#X connect 18 0 12 0;
#X connect 18 0 27 0;
#X connect 19 0 11 0;
#X connect 19 0 26 0;
#X connect 20 0 10 0;
#X connect 20 0 25 0;
#X connect 21 0 9 0;
#X connect 21 0 24 0;
#X connect 22 0 8 0;
#X connect 22 0 23 0;
#X connect 29 0 33 0;
#X connect 29 1 72 0;
#X connect 29 2 73 0;
#X connect 29 3 74 0;
#X connect 30 0 31 0;
#X connect 30 0 42 0;
#X connect 30 0 87 0;
#X connect 30 0 103 0;
#X connect 30 1 32 0;
#X connect 30 1 43 0;
#X connect 30 1 80 0;
#X connect 30 1 96 0;
#X connect 31 0 38 0;
#X connect 31 0 56 0;
#X connect 32 0 39 0;
#X connect 32 0 57 0;
#X connect 33 0 30 0;
#X connect 34 0 7 0;
#X connect 35 0 34 0;
#X connect 36 0 7 0;
#X connect 37 0 36 0;
#X connect 38 0 35 0;
#X connect 39 0 37 0;
#X connect 40 0 41 0;
#X connect 40 0 16 0;
#X connect 41 0 17 0;
#X connect 42 0 48 0;
#X connect 42 0 64 0;
#X connect 43 0 55 0;
#X connect 43 0 65 0;
#X connect 44 0 7 0;
#X connect 45 0 44 0;
#X connect 46 0 7 0;
#X connect 47 0 46 0;
#X connect 48 0 45 0;
#X connect 50 0 49 0;
#X connect 51 0 49 0;
#X connect 52 0 49 0;
#X connect 55 0 47 0;
#X connect 56 0 62 0;
#X connect 57 0 63 0;
#X connect 58 0 7 0;
#X connect 59 0 58 0;
#X connect 60 0 7 0;
#X connect 61 0 60 0;
#X connect 62 0 59 0;
#X connect 63 0 61 0;
#X connect 64 0 70 0;
#X connect 65 0 71 0;
#X connect 66 0 7 0;
#X connect 67 0 66 0;
#X connect 68 0 7 0;
#X connect 69 0 68 0;
#X connect 70 0 67 0;
#X connect 71 0 69 0;
#X connect 77 0 49 1;
#X connect 77 0 116 1;
#X connect 78 0 49 0;
#X connect 78 0 116 0;
#X connect 80 0 83 0;
#X connect 80 0 95 0;
#X connect 82 0 81 0;
#X connect 83 0 86 0;
#X connect 84 0 7 0;
#X connect 85 0 84 0;
#X connect 86 0 85 0;
#X connect 87 0 90 0;
#X connect 87 0 94 0;
#X connect 89 0 88 0;
#X connect 90 0 93 0;
#X connect 91 0 7 0;
#X connect 92 0 91 0;
#X connect 93 0 92 0;
#X connect 94 0 89 0;
#X connect 95 0 82 0;
#X connect 96 0 99 0;
#X connect 96 0 111 0;
#X connect 98 0 97 0;
#X connect 99 0 102 0;
#X connect 100 0 7 0;
#X connect 101 0 100 0;
#X connect 102 0 101 0;
#X connect 103 0 106 0;
#X connect 103 0 110 0;
#X connect 105 0 104 0;
#X connect 106 0 109 0;
#X connect 107 0 7 0;
#X connect 108 0 107 0;
#X connect 109 0 108 0;
#X connect 110 0 105 0;
#X connect 111 0 98 0;
#X connect 112 0 49 0;
#X connect 112 0 49 1;
#X connect 112 0 7 0;
#X connect 112 0 7 1;
#X connect 112 0 116 0;
#X connect 112 0 116 1;
#X connect 112 1 49 0;
#X connect 112 1 49 1;
#X connect 113 0 112 0;
#X connect 114 0 1 0;
#X connect 114 0 3 0;
#X connect 117 0 112 0;
#X connect 118 0 114 0;
#X connect 118 0 7 0;
#X connect 118 0 7 1;
#X connect 118 0 116 0;
#X connect 118 0 49 0;
#X connect 118 1 114 0;
#X connect 118 1 116 1;
#X connect 118 1 49 1;
#X connect 118 2 116 0;
#X connect 118 2 7 0;
#X connect 118 2 49 0;
#X connect 118 2 29 0;
#X connect 118 3 116 1;
#X connect 118 3 7 1;
#X connect 118 3 49 1;
#X connect 118 3 29 0;
#X connect 118 4 116 0;
#X connect 118 4 49 0;
#X connect 118 5 116 1;
#X connect 118 5 49 1;
#X connect 118 6 7 0;
#X connect 118 6 1 0;
#X connect 118 6 49 0;
#X connect 118 7 7 1;
#X connect 118 7 1 0;
#X connect 118 7 49 1;
#X connect 119 0 49 0;
#X restore -76 -39 pd META;
#X text -305 -109 SourceCode in the Sublime. Miguel Oliveros \, Madrid
\, Tanger \, Ceuta 2016;
#X connect 0 0 1 0;
#X connect 0 0 15 0;
#X connect 12 0 17 0;
#X connect 13 0 17 0;
#X connect 15 0 16 0;
#X connect 15 0 17 0;
#X connect 15 0 18 0;
#X connect 17 0 3 0;
#X connect 17 0 2 0;
#X connect 18 0 20 0;
#X connect 18 0 19 0;
